<?xml version="1.0" encoding="UTF-8"?>
<svg version="1.1" xmlns="http://www.w3.org/2000/svg" width="2252" height="920">
<path d="M0 0 C1.34871536 13.78686815 -0.30613025 21.9342035 -8.56347656 33.04052734 C-10.91411983 36.24689425 -13.0411026 39.59249103 -15.1875 42.9375 C-15.63464355 43.62577881 -16.08178711 44.31405762 -16.54248047 45.02319336 C-27.36389222 61.74600151 -37.32427502 78.98321292 -46.69042969 96.55712891 C-47.8828354 98.78144127 -49.09626013 100.99221523 -50.3203125 103.19921875 C-59.47322308 119.85102169 -66.70014234 137.48034161 -74 155 C96.28 155 266.56 155 442 155 C433.11322452 133.9356929 433.11322452 133.9356929 423.5625 113.1875 C423.02794189 112.08535156 422.49338379 110.98320313 421.94262695 109.84765625 C416.42961641 98.62327321 410.3238201 87.78317044 404 77 C403.04988037 75.36732178 403.04988037 75.36732178 402.08056641 73.70166016 C395.2604496 61.98932176 388.34591929 50.35271158 380.9375 39 C380.14146362 37.76902588 380.14146362 37.76902588 379.3293457 36.51318359 C377.1957695 33.23719069 375.05737436 30.07304782 372.640625 26.99609375 C366.30997569 18.70294315 367.34922566 9.96821018 368 0 C376.2918193 3.44716083 382.0684233 13.23432866 387.5625 20.03515625 C389.76446551 22.71350853 392.01603061 25.33344526 394.29541016 27.9453125 C401.30010007 35.98932075 407.71243884 44.38838893 414 53 C414.53802246 53.73299316 415.07604492 54.46598633 415.63037109 55.22119141 C423.02640276 65.3062942 430.20045405 75.50313625 437 86 C437.68545898 87.0521167 437.68545898 87.0521167 438.38476562 88.12548828 C449.42870603 105.12852373 459.32074295 122.7446134 468.75 140.6875 C469.26369141 141.66170898 469.77738281 142.63591797 470.30664062 143.63964844 C470.77779297 144.54618164 471.24894531 145.45271484 471.734375 146.38671875 C472.35650879 147.58107544 472.35650879 147.58107544 472.99121094 148.79956055 C474 151 474 151 475 155 C559.81 155 644.62 155 732 155 C732 355.97 732 556.94 732 764 C647.52 764 563.04 764 476 764 C475.34 765.98 474.68 767.96 474 770 C472.6977231 773.01452986 471.2207378 775.9393595 469.75 778.875 C469.31743896 779.73851074 468.88487793 780.60202148 468.43920898 781.49169922 C462.78047844 792.60731015 456.39920353 803.29969246 450 814 C449.51917969 814.81210937 449.03835938 815.62421875 448.54296875 816.4609375 C437.51679852 835.08150163 425.22880548 852.87982824 412 870 C411.31260742 870.8957373 411.31260742 870.8957373 410.61132812 871.80957031 C401.62699731 883.50194411 392.09456051 894.70249091 382.16796875 905.60546875 C380.61298369 907.32295676 379.07591381 909.05673014 377.55078125 910.80078125 C376.75027344 911.71214844 375.94976563 912.62351562 375.125 913.5625 C374.04605469 914.80193359 374.04605469 914.80193359 372.9453125 916.06640625 C371 918 371 918 368 919 C365.21922744 902.68613432 371.94856504 893.01221708 381.02539062 879.8984375 C383.85780008 875.74087506 386.44172904 871.45482286 389 867.125 C389.71422119 865.92653442 389.71422119 865.92653442 390.44287109 864.70385742 C391.96814701 862.13954108 393.48494439 859.57036699 395 857 C395.8657666 855.53554443 395.8657666 855.53554443 396.74902344 854.04150391 C408.48535099 834.13467081 419.3654474 813.83069054 429.375 793 C429.73118408 792.26160889 430.08736816 791.52321777 430.4543457 790.76245117 C434.61213538 781.96358454 438.21591645 772.98719842 442 764 C271.72 764 101.44 764 -74 764 C-58.28834496 799.70830691 -41.41550925 833.69995289 -20.96435547 866.80419922 C-17.55821302 872.34563654 -14.22305352 877.92997496 -10.91796875 883.53222656 C-8.4009147 887.77531132 -5.72680821 891.76416837 -2.8125 895.75 C0.87480377 901.35684448 0.88077633 907.0733304 0.9296875 913.59375 C0.8313137 916.98824388 0.8313137 916.98824388 2 920 C-499.6 920 -1001.2 920 -1518 920 C-1518 868.52 -1518 817.04 -1518 764 C-1518.66 764 -1519.32 764 -1520 764 C-1520 563.03 -1520 362.06 -1520 155 C-1053.71 155 -587.42 155 -107 155 C-106.34 153.02 -105.68 151.04 -105 149 C-103.1186872 144.88839439 -101.0183377 140.88880152 -98.9375 136.875 C-98.63476166 136.2901886 -98.33202332 135.7053772 -98.02011108 135.10284424 C-90.68660694 120.99146581 -82.45201909 107.46335484 -74 94 C-73.47277344 93.15727539 -72.94554687 92.31455078 -72.40234375 91.44628906 C-62.11252998 75.06529807 -51.0210154 59.15784779 -39 44 C-38.31550781 43.13375 -37.63101562 42.2675 -36.92578125 41.375 C-34.96264238 38.90661321 -32.98496321 36.45086188 -31 34 C-30.31550781 33.15179688 -29.63101562 32.30359375 -28.92578125 31.4296875 C-23.20782116 24.38746017 -17.3396267 17.48089901 -11.40283203 10.62304688 C-10.10607896 9.12273111 -8.81639029 7.61631724 -7.52734375 6.109375 C-6.81707031 5.28953125 -6.10679688 4.4696875 -5.375 3.625 C-4.76398438 2.91601562 -4.15296875 2.20703125 -3.5234375 1.4765625 C-2 0 -2 0 0 0 Z " fill="#CADA39" transform="translate(1520,0)"/>
<path d="M0 0 C1.34871536 13.78686815 -0.30613025 21.9342035 -8.56347656 33.04052734 C-10.91411983 36.24689425 -13.0411026 39.59249103 -15.1875 42.9375 C-15.63464355 43.62577881 -16.08178711 44.31405762 -16.54248047 45.02319336 C-27.36389222 61.74600151 -37.32427502 78.98321292 -46.69042969 96.55712891 C-47.8828354 98.78144127 -49.09626013 100.99221523 -50.3203125 103.19921875 C-59.47322308 119.85102169 -66.70014234 137.48034161 -74 155 C96.28 155 266.56 155 442 155 C433.11322452 133.9356929 433.11322452 133.9356929 423.5625 113.1875 C423.02794189 112.08535156 422.49338379 110.98320313 421.94262695 109.84765625 C416.42961641 98.62327321 410.3238201 87.78317044 404 77 C403.04988037 75.36732178 403.04988037 75.36732178 402.08056641 73.70166016 C395.2604496 61.98932176 388.34591929 50.35271158 380.9375 39 C380.14146362 37.76902588 380.14146362 37.76902588 379.3293457 36.51318359 C377.1957695 33.23719069 375.05737436 30.07304782 372.640625 26.99609375 C366.30997569 18.70294315 367.34922566 9.96821018 368 0 C376.2918193 3.44716083 382.0684233 13.23432866 387.5625 20.03515625 C389.76446551 22.71350853 392.01603061 25.33344526 394.29541016 27.9453125 C401.30010007 35.98932075 407.71243884 44.38838893 414 53 C414.53802246 53.73299316 415.07604492 54.46598633 415.63037109 55.22119141 C423.02640276 65.3062942 430.20045405 75.50313625 437 86 C437.68545898 87.0521167 437.68545898 87.0521167 438.38476562 88.12548828 C449.42870603 105.12852373 459.32074295 122.7446134 468.75 140.6875 C469.26369141 141.66170898 469.77738281 142.63591797 470.30664062 143.63964844 C470.77779297 144.54618164 471.24894531 145.45271484 471.734375 146.38671875 C472.35650879 147.58107544 472.35650879 147.58107544 472.99121094 148.79956055 C474 151 474 151 475 155 C559.81 155 644.62 155 732 155 C732 355.97 732 556.94 732 764 C647.52 764 563.04 764 476 764 C475.34 765.98 474.68 767.96 474 770 C472.6977231 773.01452986 471.2207378 775.9393595 469.75 778.875 C469.31743896 779.73851074 468.88487793 780.60202148 468.43920898 781.49169922 C462.78047844 792.60731015 456.39920353 803.29969246 450 814 C449.51917969 814.81210937 449.03835938 815.62421875 448.54296875 816.4609375 C437.51679852 835.08150163 425.22880548 852.87982824 412 870 C411.31260742 870.8957373 411.31260742 870.8957373 410.61132812 871.80957031 C401.62699731 883.50194411 392.09456051 894.70249091 382.16796875 905.60546875 C380.61298369 907.32295676 379.07591381 909.05673014 377.55078125 910.80078125 C376.75027344 911.71214844 375.94976563 912.62351562 375.125 913.5625 C374.04605469 914.80193359 374.04605469 914.80193359 372.9453125 916.06640625 C371 918 371 918 368 919 C365.21922744 902.68613432 371.94856504 893.01221708 381.02539062 879.8984375 C383.85780008 875.74087506 386.44172904 871.45482286 389 867.125 C389.71422119 865.92653442 389.71422119 865.92653442 390.44287109 864.70385742 C391.96814701 862.13954108 393.48494439 859.57036699 395 857 C395.8657666 855.53554443 395.8657666 855.53554443 396.74902344 854.04150391 C408.48535099 834.13467081 419.3654474 813.83069054 429.375 793 C429.73118408 792.26160889 430.08736816 791.52321777 430.4543457 790.76245117 C434.61213538 781.96358454 438.21591645 772.98719842 442 764 C271.72 764 101.44 764 -74 764 C-58.28834496 799.70830691 -41.41550925 833.69995289 -20.96435547 866.80419922 C-17.55821302 872.34563654 -14.22305352 877.92997496 -10.91796875 883.53222656 C-8.4009147 887.77531132 -5.72680821 891.76416837 -2.8125 895.75 C0.87480377 901.35684448 0.88077633 907.0733304 0.9296875 913.59375 C0.8313137 916.98824388 0.8313137 916.98824388 2 920 C-499.6 920 -1001.2 920 -1518 920 C-1518 868.19 -1518 816.38 -1518 763 C-1053.03 763 -588.06 763 -109 763 C-112.96 754.09 -116.92 745.18 -121 736 C-129.10963047 716.18669829 -136.15059694 696.21098596 -142.74609375 675.85888672 C-143.76208799 672.72449505 -144.79763414 669.59714401 -145.84375 666.47265625 C-153.19675238 644.27544359 -157.98750379 621.33535411 -162.35205078 598.39453125 C-162.92846249 595.37477674 -163.52183379 592.35903091 -164.12109375 589.34375 C-167.96046983 569.63568306 -170.23393812 549.6000743 -172.1875 529.625 C-172.2592041 528.89788818 -172.3309082 528.17077637 -172.40478516 527.42163086 C-173.72812414 512.94700706 -174.15415164 498.47949368 -174.1328125 483.953125 C-174.13348974 482.28277574 -174.13446321 480.61242657 -174.13571167 478.94207764 C-174.13717059 475.46983893 -174.13509425 471.99762626 -174.13037109 468.52539062 C-174.12469196 464.14414531 -174.12805598 459.7629609 -174.13379669 455.38171768 C-174.16074358 431.40049594 -173.8691988 407.61233129 -171.25 383.75 C-171.16352203 382.94872681 -171.07704407 382.14745361 -170.98794556 381.32189941 C-166.29829279 338.08059684 -159.01660105 294.66826609 -145.3828125 253.265625 C-144.27168715 249.88816873 -143.27143893 246.49318092 -142.31445312 243.06933594 C-136.03418988 220.74071835 -127.32821482 199.20368226 -118 178 C-117.6095752 177.10877441 -117.21915039 176.21754883 -116.81689453 175.29931641 C-114.27052361 169.50507975 -111.65383333 163.74571036 -109 158 C-108.59346191 157.113125 -108.18692383 156.22625 -107.76806641 155.3125 C-95.18719048 127.97153499 -80.09085049 101.77721183 -63 77 C-62.49355957 76.26426758 -61.98711914 75.52853516 -61.46533203 74.77050781 C-54.24205519 64.2972716 -46.90664842 53.9698544 -39 44 C-38.31550781 43.13375 -37.63101562 42.2675 -36.92578125 41.375 C-34.96264238 38.90661321 -32.98496321 36.45086188 -31 34 C-30.31550781 33.15179688 -29.63101562 32.30359375 -28.92578125 31.4296875 C-23.20782116 24.38746017 -17.3396267 17.48089901 -11.40283203 10.62304688 C-10.10607896 9.12273111 -8.81639029 7.61631724 -7.52734375 6.109375 C-6.81707031 5.28953125 -6.10679688 4.4696875 -5.375 3.625 C-4.76398438 2.91601562 -4.15296875 2.20703125 -3.5234375 1.4765625 C-2 0 -2 0 0 0 Z " fill="#373435" transform="translate(1520,0)"/>
<path d="M0 0 C465.3 0 930.6 0 1410 0 C1414.95 9.9 1414.95 9.9 1420 20 C1422.09091171 23.86458164 1424.18640865 27.69434881 1426.375 31.5 C1426.91970947 32.45374512 1427.46441895 33.40749023 1428.02563477 34.39013672 C1429.67449251 37.26556924 1431.33440543 40.13423446 1433 43 C1433.50289551 43.86657227 1434.00579102 44.73314453 1434.52392578 45.62597656 C1447.82600438 68.43831723 1462.71460236 90.21929425 1479 111 C1479.99966797 112.27617188 1479.99966797 112.27617188 1481.01953125 113.578125 C1488.6210133 123.17673777 1496.54147452 132.52407011 1504.796875 141.56640625 C1506.3706556 143.30481992 1507.92021772 145.06528388 1509.453125 146.83984375 C1510.25234375 147.75894531 1511.0515625 148.67804688 1511.875 149.625 C1512.59429688 150.46289062 1513.31359375 151.30078125 1514.0546875 152.1640625 C1515.91781708 154.3431831 1515.91781708 154.3431831 1519 154 C1519.33 154.99 1519.66 155.98 1520 157 C1018.4 157 516.8 157 0 157 C0 105.19 0 53.38 0 0 Z " fill="#373435" transform="translate(2,763)"/>
<path d="M0 0 C84.48 0 168.96 0 256 0 C256 200.97 256 401.94 256 609 C171.52 609 87.04 609 0 609 C1.30195371 605.09413888 2.50463788 601.7273863 4.25 598.078125 C11.22636075 583.29424304 17.38292523 568.3496704 23 553 C23.24381409 552.33536743 23.48762817 551.67073486 23.73883057 550.98596191 C29.95180971 534.03231052 35.92138788 517.13194082 40.31640625 499.6003418 C41.11857285 496.54895737 42.01413458 493.53019954 42.90625 490.50390625 C45.30930146 482.14394722 47.17973816 473.69063556 49 465.1875 C49.17364075 464.38339691 49.34728149 463.57929382 49.52618408 462.75082397 C52.14388825 450.59801428 54.40752695 438.4477745 56.2109375 426.14453125 C56.71197046 422.73106482 57.31076241 419.36237043 58.01171875 415.984375 C60.03858846 406.09127432 60.95282008 396.03420948 62 386 C62.21172852 384.09782715 62.21172852 384.09782715 62.42773438 382.15722656 C65.19743233 356.8050104 65.29639289 331.39782585 65.31052017 305.92570114 C65.31247379 303.22374406 65.31758905 300.52180665 65.3230896 297.81985474 C65.36655147 268.78161693 64.01592375 240.31708506 60.078125 211.50708008 C59.62270745 208.17070486 59.18151245 204.83266927 58.7421875 201.49414062 C56.12507723 181.83808311 52.97801622 162.32294671 48.5 143 C48.21769531 141.75089844 47.93539063 140.50179687 47.64453125 139.21484375 C37.4483855 94.60093905 22.48809968 50.82785966 2.89477539 9.45800781 C2.5105542 8.64041992 2.12633301 7.82283203 1.73046875 6.98046875 C1.39426514 6.27817139 1.05806152 5.57587402 0.71166992 4.85229492 C0 3 0 3 0 0 Z " fill="#CADA39" transform="translate(1996,155)"/>
<path d="M0 0 C28.0603125 -0.37125 28.0603125 -0.37125 56.6875 -0.75 C65.51568481 -0.91387207 65.51568481 -0.91387207 74.5222168 -1.08105469 C81.76330566 -1.13525391 81.76330566 -1.13525391 85.16365051 -1.14532471 C87.5158571 -1.16363596 89.86795775 -1.2056031 92.21943665 -1.26690674 C114.1531014 -1.80965389 114.1531014 -1.80965389 121.16299915 4.14948654 C123.64121997 6.62413997 125.79220067 9.28019707 128 12 C129.83664757 13.58716313 131.70664521 15.13762782 133.625 16.625 C137.37221213 19.63363119 140.9644923 22.74492917 144.5 26 C148.07792463 29.29331699 151.71539666 32.44651321 155.5 35.5 C160.25595419 39.33719031 164.75504801 43.39385101 169.25 47.53125 C171.93737634 49.94378104 174.68965444 52.2325621 177.5 54.5 C182.25595419 58.33719031 186.75504801 62.39385101 191.25 66.53125 C193.93737634 68.94378104 196.68965444 71.2325621 199.5 73.5 C204.25595419 77.33719031 208.75504801 81.39385101 213.25 85.53125 C215.93737634 87.94378104 218.68965444 90.2325621 221.5 92.5 C225.28460334 95.55348679 228.92207537 98.70668301 232.5 102 C236.95833298 106.10318839 241.564982 109.95243161 246.28125 113.75390625 C249.96738515 116.79920468 253.4885839 120.01027892 257.00390625 123.25 C258.88450675 125.04781979 258.88450675 125.04781979 261 126 C261 84.42 261 42.84 261 0 C287.4 0 313.8 0 341 0 C341 69.63 341 139.26 341 211 C311.795 211.2475 311.795 211.2475 282 211.5 C275.86019531 211.57283203 269.72039062 211.64566406 263.39453125 211.72070312 C255.87695313 211.75683594 255.87695313 211.75683594 252.35375977 211.7635498 C249.90149312 211.77580691 247.44927369 211.80388757 244.99731445 211.84460449 C241.27470627 211.90331288 237.55503415 211.91124418 233.83203125 211.90820312 C232.20295586 211.95138042 232.20295586 211.95138042 230.54096985 211.99542999 C224.77058311 211.93248299 221.67067938 211.3172106 217.51147461 207.16491699 C216.33545971 205.78128698 215.16481416 204.39307251 214 203 C212.68318372 201.79355802 211.3470782 200.60748515 209.984375 199.453125 C205.96751492 195.992747 202.102118 192.39190692 198.25 188.75 C192.55893096 183.39125616 186.83096552 178.07970121 181.05859375 172.80859375 C177.51537135 169.56443661 174.00836194 166.28175903 170.5 163 C165.01464084 157.87001271 159.49977997 152.77489922 153.95703125 147.70703125 C149.16862506 143.32791788 144.40702925 138.91966677 139.64111328 134.51611328 C137.46909558 132.50953341 135.29623927 130.50386308 133.12329102 128.49829102 C132.03906892 127.49755842 130.95492206 126.49674431 129.87084961 125.49584961 C127.18851745 123.01938674 124.50534524 120.54384728 121.8203125 118.0703125 C116.00699805 112.71287445 110.21245831 107.33627782 104.4375 101.9375 C99.76229717 97.56997119 95.08184435 93.20843815 90.375 88.875 C89.45460938 88.02679688 88.53421875 87.17859375 87.5859375 86.3046875 C85.13135917 84.11707238 82.56745754 82.05396603 80 80 C80 123.23 80 166.46 80 211 C53.6 211 27.2 211 0 211 C0 141.37 0 71.74 0 0 Z " fill="#FDFDFD" transform="translate(1612,361)"/>
<path d="M0 0 C94.05 0 188.1 0 285 0 C285 16.5 285 33 285 50 C220.98 50 156.96 50 91 50 C91 60.23 91 70.46 91 81 C147.76 81 204.52 81 263 81 C263 95.52 263 110.04 263 125 C206.24 125 149.48 125 91 125 C91 135.89 91 146.78 91 158 C155.02 158 219.04 158 285 158 C285 175.49 285 192.98 285 211 C190.95 211 96.9 211 0 211 C0 141.37 0 71.74 0 0 Z " fill="#373435" transform="translate(990,361)"/>
<path d="M0 0 C30.03 0 60.06 0 91 0 C95.62 8.25 100.24 16.5 105 25 C110.17277732 33.89125966 110.17277732 33.89125966 115.3671875 42.76953125 C119.29477422 49.48461057 123.149607 56.24052629 127 63 C131.95349471 71.69418207 136.94382499 80.36495375 142 89 C148.45648268 100.02959366 154.80758166 111.11753023 161.1328125 122.22265625 C163.63433214 126.61375457 166.14927368 130.9965844 168.6796875 135.37109375 C169.24284668 136.34731689 169.80600586 137.32354004 170.38623047 138.3293457 C171.43653268 140.1488632 172.49007768 141.96651394 173.54736328 143.78198242 C174.0061084 144.57838135 174.46485352 145.37478027 174.9375 146.1953125 C175.33839844 146.88641113 175.73929688 147.57750977 176.15234375 148.28955078 C177 150 177 150 177 152 C177.66 152 178.32 152 179 152 C179.20109375 151.23300781 179.4021875 150.46601563 179.609375 149.67578125 C181.57206821 144.48787587 184.40808163 139.93835274 187.25 135.1875 C192.27736853 126.68364888 197.2025605 118.13566283 202 109.5 C207.09753393 100.34234495 212.31309086 91.26305071 217.61376953 82.22167969 C222.08278925 74.59200865 226.49336704 66.93008499 230.875 59.25 C231.20636963 58.66933777 231.53773926 58.08867554 231.87915039 57.49041748 C234.25431405 53.3278264 236.62735919 49.16402945 239 45 C241.45437543 40.69270817 243.90966078 36.38593875 246.36676025 32.0802002 C247.327306 30.39611968 248.2864914 28.71126348 249.24560547 27.02636719 C250.44627138 24.92193656 251.66751037 22.8290727 252.91177368 20.75012207 C254.43837083 18.12347324 255.66932795 15.47940207 256.83557129 12.67547607 C261.86583971 1.41515082 261.86583971 1.41515082 267.09923172 -0.947855 C273.28386458 -2.40623565 279.58587236 -1.95089857 285.8828125 -1.66015625 C287.90865954 -1.6284075 289.93463805 -1.60422818 291.96066284 -1.58726501 C297.26777057 -1.52265866 302.56683758 -1.35601341 307.87078857 -1.16729736 C313.29296043 -0.99268384 318.71644601 -0.91560435 324.140625 -0.83007812 C334.76393088 -0.64830809 345.3812945 -0.35859979 356 0 C354.7471911 2.5146698 353.49338088 5.02883225 352.23901367 7.54272461 C351.88949394 8.24454613 351.53997421 8.94636765 351.17986298 9.66945648 C347.67233669 16.69527494 344.01625189 23.63846115 340.3125 30.5625 C339.79668365 31.5293573 339.79668365 31.5293573 339.27044678 32.51574707 C334.34416186 41.74430009 329.275065 50.87748223 324.07543945 59.95532227 C318.77678077 69.26863119 313.81038877 78.7514216 308.82528687 88.23468018 C304.15762419 97.10843678 299.42613801 105.92594869 294.4375 114.625 C288.46727025 125.03748384 282.84319162 135.6189969 277.23510742 146.22900391 C276.51486849 147.59150164 275.79457293 148.95396945 275.07421875 150.31640625 C274.72312546 150.98047485 274.37203217 151.64454346 274.01029968 152.32873535 C269.58902524 160.68052881 265.0442317 168.96411007 260.50195312 177.25048828 C257.09957569 183.47896271 253.73246559 189.7267051 250.36230469 195.97265625 C249.85086914 196.91882813 249.33943359 197.865 248.8125 198.83984375 C248.36519531 199.66863037 247.91789063 200.49741699 247.45703125 201.35131836 C245.676108 204.58879095 243.83322609 207.79185435 242 211 C199.76 211 157.52 211 114 211 C107.07 198.13 107.07 198.13 100 185 C95.95882377 177.87367528 95.95882377 177.87367528 91.90698242 170.75341797 C86.88076552 161.90528054 82.14414806 152.90908607 77.39730835 143.90936279 C72.8881403 135.36553107 68.30415059 126.88300015 63.5 118.5 C57.91166432 108.74863649 52.63887945 98.84738868 47.39648438 88.90771484 C42.88758648 80.36443452 38.30376761 71.88251 33.5 63.5 C27.46723049 52.9711008 21.78511206 42.26962814 16.12329102 31.53857422 C11.76057497 23.27556039 7.33515744 15.0574283 2.69067383 6.94799805 C0 2.20575256 0 2.20575256 0 0 Z " fill="#373435" transform="translate(581,361)"/>
<path d="M0 0 C8.2918193 3.44716083 14.0684233 13.23432866 19.5625 20.03515625 C21.76446551 22.71350853 24.01603061 25.33344526 26.29541016 27.9453125 C33.30010007 35.98932075 39.71243884 44.38838893 46 53 C46.53802246 53.73299316 47.07604492 54.46598633 47.63037109 55.22119141 C55.02640276 65.3062942 62.20045405 75.50313625 69 86 C69.45697266 86.70141113 69.91394531 87.40282227 70.38476562 88.12548828 C78.816898 101.10743499 86.55647647 114.42963569 94 128 C94.48404297 128.87479004 94.96808594 129.74958008 95.46679688 130.65087891 C120.74662451 176.58977007 140.44540093 227.40393534 152.40039062 278.4609375 C153.1119237 281.473944 153.86485693 284.4751064 154.62719727 287.47558594 C155.43187986 290.64695882 156.21271155 293.82427108 157 297 C157.47373047 298.84851563 157.47373047 298.84851563 157.95703125 300.734375 C163.39224529 322.35269375 166.31554617 344.48826609 169.1875 366.5625 C169.31396912 367.51723206 169.44043823 368.47196411 169.57073975 369.45562744 C173.34768149 398.14719716 174.37745783 426.59101418 174.31785583 455.48865509 C174.3124301 458.22272378 174.31005269 460.95678384 174.3079834 463.69085693 C174.27830005 488.84403665 174.06719488 513.90055431 171.23431396 538.92321777 C170.99143267 541.07593433 170.75978971 543.22966108 170.52978516 545.38378906 C168.87350218 560.72985526 166.71934141 575.93982736 163.59472656 591.06103516 C162.88663966 594.56019366 162.2185925 598.06648002 161.5546875 601.57421875 C158.04791368 620.07005761 154.27964869 638.3208867 148.79321289 656.34863281 C148.16339049 658.45385634 147.54864498 660.56358937 146.93920898 662.67480469 C143.87252041 673.29454321 140.51561999 683.79185847 136.9375 694.25 C136.65853882 695.06683258 136.37957764 695.88366516 136.09216309 696.72525024 C129.17494743 716.9011151 121.35180535 736.68561053 111.94042969 755.84448242 C110.18239586 759.42431519 108.58590624 762.99965078 107.15234375 766.72265625 C104.70350298 772.94475945 101.65544441 778.82754002 98.5625 784.75 C98.25465576 785.33980652 97.94681152 785.92961304 97.62963867 786.53729248 C82.68733116 815.10070706 65.27236687 843.01145862 45.29150391 868.35986328 C43.93484745 870.08274004 42.5974018 871.81941819 41.26171875 873.55859375 C32.70543977 884.64413478 23.59437009 895.25188039 14.16796875 905.60546875 C12.61298369 907.32295676 11.07591381 909.05673014 9.55078125 910.80078125 C8.35001953 912.16783203 8.35001953 912.16783203 7.125 913.5625 C6.04605469 914.80193359 6.04605469 914.80193359 4.9453125 916.06640625 C3 918 3 918 0 919 C-2.78077256 902.68613432 3.94856504 893.01221708 13.02539062 879.8984375 C15.85780008 875.74087506 18.44172904 871.45482286 21 867.125 C21.47614746 866.32602295 21.95229492 865.5270459 22.44287109 864.70385742 C23.96814701 862.13954108 25.48494439 859.57036699 27 857 C27.8657666 855.53554443 27.8657666 855.53554443 28.74902344 854.04150391 C38.41285809 837.64997576 47.47203592 821.01035274 56 804 C56.45713379 803.08976074 56.91426758 802.17952148 57.38525391 801.24169922 C76.23741348 763.41612139 88.61883767 723.92836687 97.5390625 682.6875 C98.70004004 677.32437279 99.9327066 671.98178869 101.1965332 666.64208984 C111.56196138 622.68720991 119.54090078 577.9477201 124 533 C124.11037598 531.92041016 124.22075195 530.84082031 124.33447266 529.72851562 C126.02905713 512.85205546 126.70702602 495.95331644 127 479 C127.01673767 478.10071777 127.03347534 477.20143555 127.05072021 476.27490234 C128.46172569 398.36500849 117.83163642 321.81862539 99.69200134 246.13607788 C98.31806066 240.38893592 97.00472029 234.62982659 95.71484375 228.86328125 C87.12814013 188.4324936 87.12814013 188.4324936 72.07128906 150.16821289 C70.03501895 146.04694696 68.29989343 141.79084426 66.5 137.5625 C57.49238004 116.69599997 47.48354821 96.61196335 36 77 C35.04770508 75.36297119 35.04770508 75.36297119 34.07617188 73.69287109 C27.25751441 61.98350991 20.34410318 50.34992855 12.9375 39 C12.14146362 37.76902588 12.14146362 37.76902588 11.3293457 36.51318359 C9.1957695 33.23719069 7.05737436 30.07304782 4.640625 26.99609375 C-1.69002431 18.70294315 -0.65077434 9.96821018 0 0 Z " fill="#EC3236" transform="translate(1888,0)"/>
<path d="M0 0 C1.34871536 13.78686815 -0.30613025 21.9342035 -8.56347656 33.04052734 C-10.91411983 36.24689425 -13.0411026 39.59249103 -15.1875 42.9375 C-15.63464355 43.62577881 -16.08178711 44.31405762 -16.54248047 45.02319336 C-27.36389222 61.74600151 -37.32427502 78.98321292 -46.69042969 96.55712891 C-47.8828354 98.78144127 -49.09626013 100.99221523 -50.3203125 103.19921875 C-58.95448205 118.9072811 -65.93565592 135.48580604 -72.77148438 152.03979492 C-73.5997929 154.0356695 -74.43992031 156.02667484 -75.29101562 158.01293945 C-78.16185516 164.74514529 -80.61792767 171.49961131 -82.75 178.5 C-83.08507568 179.59675049 -83.42015137 180.69350098 -83.76538086 181.82348633 C-88.42320013 197.3950154 -92.23270926 213.19381731 -96 229 C-96.30260742 230.2684375 -96.60521484 231.536875 -96.91699219 232.84375 C-104.55303501 265.16415019 -111.89442869 297.90520841 -116.54492188 330.80126953 C-116.98536627 333.89713997 -117.44388967 336.9900191 -117.90652466 340.0826416 C-123.77740042 379.38357258 -127.43092272 418.55206829 -127.375 458.3125 C-127.37511275 459.67067464 -127.37523495 461.02884928 -127.37536621 462.38702393 C-127.35653248 488.72075912 -125.77918326 514.81054685 -123 541 C-122.91087341 541.84925049 -122.82174683 542.69850098 -122.72991943 543.57348633 C-121.29783739 557.14825804 -119.71088939 570.66232693 -117.1269989 584.07234192 C-116.08821387 589.46456609 -115.1836879 594.86993996 -114.31518555 600.29174805 C-109.59144248 629.71770863 -103.3511223 658.81754167 -96.51361084 687.81799316 C-95.99444275 690.02360924 -95.47857888 692.22997737 -94.96337891 694.43652344 C-91.21333316 710.47160841 -87.43217606 726.43491986 -82 742 C-81.71721191 742.82870605 -81.43442383 743.65741211 -81.14306641 744.51123047 C-66.38607524 787.58762832 -44.84033026 828.1562012 -20.96435547 866.80419922 C-17.55843132 872.34528138 -14.22134697 877.92814089 -10.92016602 883.53222656 C-8.39533974 887.79367985 -5.70309638 891.76743774 -2.75 895.75 C1.52793134 902.22386704 0.58721033 909.57132334 0 917 C-3 917 -3 917 -4.578125 915.75 C-5.40570312 914.88375 -5.40570312 914.88375 -6.25 914 C-6.87132812 913.3503125 -7.49265625 912.700625 -8.1328125 912.03125 C-10.41778111 909.54551009 -12.66413494 907.0352648 -14.8671875 904.4765625 C-16.54909757 902.52357535 -18.24274906 900.58331535 -19.9453125 898.6484375 C-27.26039898 890.31271809 -34.26217182 881.80731954 -41 873 C-41.55381348 872.28279785 -42.10762695 871.5655957 -42.67822266 870.82666016 C-62.57256382 845.02354129 -80.24396303 817.56840424 -95.51611328 788.79150391 C-96.99771916 786.00429074 -98.4963262 783.22669259 -99.99609375 780.44921875 C-117.87909693 747.06393079 -131.09512352 711.81094751 -142.74609375 675.85888672 C-143.76208799 672.72449505 -144.79763414 669.59714401 -145.84375 666.47265625 C-153.19675238 644.27544359 -157.98750379 621.33535411 -162.35205078 598.39453125 C-162.92846249 595.37477674 -163.52183379 592.35903091 -164.12109375 589.34375 C-167.96046983 569.63568306 -170.23393812 549.6000743 -172.1875 529.625 C-172.2592041 528.89788818 -172.3309082 528.17077637 -172.40478516 527.42163086 C-173.72812414 512.94700706 -174.15415164 498.47949368 -174.1328125 483.953125 C-174.13348974 482.28277574 -174.13446321 480.61242657 -174.13571167 478.94207764 C-174.13717059 475.46983893 -174.13509425 471.99762626 -174.13037109 468.52539062 C-174.12469196 464.14414531 -174.12805598 459.7629609 -174.13379669 455.38171768 C-174.16074358 431.40049594 -173.8691988 407.61233129 -171.25 383.75 C-171.16352203 382.94872681 -171.07704407 382.14745361 -170.98794556 381.32189941 C-166.29829279 338.08059684 -159.01660105 294.66826609 -145.3828125 253.265625 C-144.27168715 249.88816873 -143.27143893 246.49318092 -142.31445312 243.06933594 C-136.03418988 220.74071835 -127.32821482 199.20368226 -118 178 C-117.6095752 177.10877441 -117.21915039 176.21754883 -116.81689453 175.29931641 C-114.27052361 169.50507975 -111.65383333 163.74571036 -109 158 C-108.59346191 157.113125 -108.18692383 156.22625 -107.76806641 155.3125 C-95.18719048 127.97153499 -80.09085049 101.77721183 -63 77 C-62.24033936 75.89640137 -62.24033936 75.89640137 -61.46533203 74.77050781 C-54.24205519 64.2972716 -46.90664842 53.9698544 -39 44 C-38.31550781 43.13375 -37.63101562 42.2675 -36.92578125 41.375 C-34.96264238 38.90661321 -32.98496321 36.45086188 -31 34 C-30.31550781 33.15179688 -29.63101562 32.30359375 -28.92578125 31.4296875 C-23.20782116 24.38746017 -17.3396267 17.48089901 -11.40283203 10.62304688 C-10.10607896 9.12273111 -8.81639029 7.61631724 -7.52734375 6.109375 C-6.46193359 4.87960937 -6.46193359 4.87960937 -5.375 3.625 C-4.76398438 2.91601562 -4.15296875 2.20703125 -3.5234375 1.4765625 C-2 0 -2 0 0 0 Z " fill="#EC3236" transform="translate(1520,0)"/>
<path d="M0 0 C34.32 0 68.64 0 104 0 C104 49.17 104 98.34 104 149 C155.15 149 206.3 149 259 149 C259 169.46 259 189.92 259 211 C173.53 211 88.06 211 0 211 C0 141.37 0 71.74 0 0 Z " fill="#383535" transform="translate(117,361)"/>
<path d="M0 0 C32.67 0 65.34 0 99 0 C99 69.63 99 139.26 99 211 C66.33 211 33.66 211 0 211 C0 141.37 0 71.74 0 0 Z " fill="#FCFCFC" transform="translate(1460,361)"/>
<path d="M0 0 C32.34 0 64.68 0 98 0 C98 69.63 98 139.26 98 211 C65.66 211 33.32 211 0 211 C0 141.37 0 71.74 0 0 Z " fill="#373435" transform="translate(429,361)"/>
<path d="M0 0 C3 1 3 1 4.34521484 2.38574219 C6.50346559 4.49113521 8.75919228 5.52233543 11.4765625 6.828125 C12.60715088 7.3737207 13.73773926 7.91931641 14.90258789 8.48144531 C16.14322783 9.0713088 17.38403639 9.66081775 18.625 10.25 C19.90429369 10.8627925 21.18350775 11.47575129 22.46264648 12.08886719 C34.0315988 17.61393842 45.69680119 22.92923031 57.38330078 28.20019531 C58.06328629 28.50691162 58.74327179 28.81362793 59.44386292 29.12963867 C61.28761018 29.96040733 63.13217953 30.78935084 64.97680664 31.61816406 C68 33 68 33 69.97436523 34.24902344 C72.74857425 35.46058977 72.74857425 35.46058977 79 34 C79 40.27 79 46.54 79 53 C78.34 53 77.68 53 77 53 C76.67 52.34 76.34 51.68 76 51 C71.75129944 51.6514641 68.24726861 53.09960984 64.34765625 54.88671875 C63.70297394 55.18059982 63.05829163 55.4744809 62.39407349 55.77726746 C60.28115798 56.74221393 58.1718528 57.71479342 56.0625 58.6875 C54.5949839 59.35927124 53.12728953 60.03065316 51.65942383 60.70166016 C44.18611325 64.12388483 36.73138807 67.58516648 29.2890625 71.07421875 C28.60047653 71.39680161 27.91189056 71.71938446 27.20243835 72.05174255 C23.91404318 73.59314331 20.62802968 75.1392932 17.34594727 76.6940918 C16.17346436 77.24621338 15.00098145 77.79833496 13.79296875 78.3671875 C12.7671167 78.85300293 11.74126465 79.33881836 10.68432617 79.83935547 C8 81 8 81 5.71606445 81.50439453 C5.14976318 81.66794434 4.58346191 81.83149414 4 82 C2.70339566 84.49034386 2.70339566 84.49034386 2 87 C1.34 87 0.68 87 0 87 C0 80.73 0 74.46 0 68 C0.99 68 1.98 68 3 68 C3 68.99 3 69.98 3 71 C8.56880122 69.26221806 13.87257409 67.25577199 19.15234375 64.76953125 C21 64 21 64 23 64 C22.505 43.21 22.505 43.21 22 22 C12.71975933 17.38033213 12.71975933 17.38033213 3 14 C2.67 14.99 2.34 15.98 2 17 C1.34 17 0.68 17 0 17 C0 11.39 0 5.78 0 0 Z " fill="#3B3935" transform="translate(2122,391)"/>
<path d="M0 0 C1.98 0.99 1.98 0.99 4 2 C7.31691192 2.29025301 7.31691192 2.29025301 11.06347656 2.22705078 C11.76631775 2.22734283 12.46915894 2.22763489 13.19329834 2.22793579 C15.50920084 2.22654592 17.82477892 2.21100113 20.140625 2.1953125 C21.74916406 2.19158115 23.35770541 2.18873475 24.96624756 2.18673706 C29.19460351 2.17911023 33.4228215 2.15946994 37.65112305 2.1373291 C41.96791722 2.11685018 46.28473373 2.10773097 50.6015625 2.09765625 C59.06777156 2.07622312 67.5338686 2.04209868 76 2 C76.33 1.34 76.66 0.68 77 0 C77.66 0 78.32 0 79 0 C79 7.26 79 14.52 79 22 C76.69 21.67 74.38 21.34 72 21 C69.16647139 22.72125687 69.16647139 22.72125687 66.75 25.375 C65.33654297 26.76138672 65.33654297 26.76138672 63.89453125 28.17578125 C63.41580566 28.65096191 62.93708008 29.12614258 62.44384766 29.61572266 C60.2242444 31.74374945 57.83836376 33.6438465 55.4375 35.5625 C51.86171531 38.44848793 48.39598682 41.40444804 45 44.5 C40.71029191 48.40960737 36.26299868 52.07507635 31.75 55.72265625 C28.09162676 58.75224659 24.58803001 61.93601783 21.09375 65.15234375 C19 67 19 67 16 69 C23.6580332 69.06943717 31.31603387 69.12277913 38.97430992 69.15543652 C42.53018671 69.17110864 46.08584852 69.19237444 49.64160156 69.22631836 C53.72723482 69.26507759 57.81264141 69.27969633 61.8984375 69.29296875 C63.81878311 69.31619453 63.81878311 69.31619453 65.77792358 69.33988953 C66.95899689 69.34011612 68.14007019 69.34034271 69.35693359 69.34057617 C70.40062103 69.34723801 71.44430847 69.35389984 72.5196228 69.36076355 C73.33814728 69.24171158 74.15667175 69.12265961 75 69 C75.99 67.515 75.99 67.515 77 66 C77.66 66 78.32 66 79 66 C79 70.95 79 75.9 79 81 C78.34 81 77.68 81 77 81 C76.67 80.34 76.34 79.68 76 79 C52.24 79 28.48 79 4 79 C3.505 79.99 3.505 79.99 3 81 C2.34 81 1.68 81 1 81 C1 75.39 1 69.78 1 64 C1.66 64 2.32 64 3 64 C3 64.66 3 65.32 3 66 C7.44366333 63.98899908 10.6635434 61.73368784 14.1875 58.375 C17.88497799 54.92301851 21.62385541 51.6118467 25.5625 48.4375 C29.13828469 45.55151207 32.60401318 42.59555196 36 39.5 C39.39598682 36.40444804 42.86171531 33.44848793 46.4375 30.5625 C51.33524683 26.60395178 55.97396317 22.44683829 60.58984375 18.1640625 C63 16 63 16 67 13 C46.21 13 25.42 13 4 13 C3.67 13.66 3.34 14.32 3 15 C2.01 15 1.02 15 0 15 C0 10.05 0 5.1 0 0 Z " fill="#3D3B35" transform="translate(2122,514)"/>
<path d="M0 0 C3.51455198 0.66358674 6.13808087 2.09523645 9.1875 3.9375 C10.06792969 4.46214844 10.94835938 4.98679687 11.85546875 5.52734375 C14 7 14 7 15 9 C13.63101563 9.28810547 13.63101563 9.28810547 12.234375 9.58203125 C8.1129223 11.38890001 6.98991231 13.76248656 5.25 17.6875 C4.81494141 18.58758789 4.81494141 18.58758789 4.37109375 19.50585938 C-1.01744365 30.95957699 -2.34807229 45.1108431 1.5625 57.3125 C3.65451675 62.02504299 6.30732464 65.6773627 11 68 C14.53784353 68.72079429 17.65731259 68.46577299 21.10009766 67.27148438 C25.07759155 64.60959949 25.89208851 59.43164594 27 55 C27.5116715 50.82688703 27.6043794 46.70144674 27.625 42.5 C27.94873786 16.11536452 27.94873786 16.11536452 36.71875 7.265625 C42.06595839 3.36479265 47.58098444 3.01606331 54 4 C59.6691078 5.57095758 63.44267282 8.72157117 66.6796875 13.5859375 C73.58584767 26.21317711 74.49566569 42.97158197 70.90625 56.828125 C70.10303752 59.51578599 69.17733508 62.09070379 68.19140625 64.72265625 C66.58588832 69.13914657 65.4916836 72.4750508 67 77 C61.26800429 75.53025751 56.66416601 72.55513098 52 69 C52 68.67 52 68.34 52 68 C52.76957031 67.9484375 53.53914063 67.896875 54.33203125 67.84375 C57.20347879 67.25209071 57.20347879 67.25209071 58.51171875 64.59375 C63.69615868 50.95230008 67.06911748 37.47682083 61.21484375 23.3515625 C59.22513919 19.50010866 56.98054726 15.99027363 53 14 C47.14313991 13.37127913 47.14313991 13.37127913 42.125 16.0625 C37.49727325 22.45965168 37.68248965 29.37870537 37.5 37 C36.47563026 66.15638383 36.47563026 66.15638383 29.546875 73.55078125 C24.53594326 78.0429044 20.00094099 78.30047201 13.53125 78.21484375 C7.17007915 77.67492956 3.01953527 74.75997597 -1 70 C-9.25481033 58.41933855 -10.35284795 44.86883656 -9 31 C-7.42820916 22.54121041 -4.20285861 14.50062693 0.1796875 7.11328125 C1.23190496 4.40256865 0.78079304 2.75205449 0 0 Z " fill="#3B3835" transform="translate(2130,637)"/>
<path d="M0 0 C3 1 3 1 4 3 C27.76 3.33 51.52 3.66 76 4 C76.33 3.01 76.66 2.02 77 1 C77.66 1 78.32 1 79 1 C79.00586624 1.80988373 79.01173248 2.61976746 79.01777649 3.45419312 C79.07561674 11.076743 79.14764261 18.69896274 79.23571491 26.32121849 C79.28049348 30.24016653 79.3197326 34.15900881 79.34643555 38.078125 C79.37239455 41.8584402 79.41274306 45.63835004 79.46318626 49.41841507 C79.47990542 50.86249383 79.49138818 52.30664278 79.49761391 53.7508049 C79.50719941 55.7693662 79.53692328 57.78780181 79.56762695 59.80615234 C79.57873001 60.95642914 79.58983307 62.10670593 79.60127258 63.2918396 C79.73285263 64.18553253 79.86443268 65.07922546 80 66 C81.485 66.99 81.485 66.99 83 68 C83 68.66 83 69.32 83 70 C78.05 70 73.1 70 68 70 C68.495 68.515 68.495 68.515 69 67 C69.66 67 70.32 67 71 67 C71.33 49.18 71.66 31.36 72 13 C63.09 13 54.18 13 45 13 C45.495 30.82 45.495 30.82 46 49 C46.99 49.33 47.98 49.66 49 50 C49 50.99 49 51.98 49 53 C43.72 53 38.44 53 33 53 C33.33 52.01 33.66 51.02 34 50 C34.66 49.67 35.32 49.34 36 49 C36.33 37.12 36.66 25.24 37 13 C27.43 13 17.86 13 8 13 C8.33 30.82 8.66 48.64 9 67 C9.66 67.33 10.32 67.66 11 68 C11 68.66 11 69.32 11 70 C6.38 70 1.76 70 -3 70 C-3 69.34 -3 68.68 -3 68 C-2.01 67.505 -2.01 67.505 -1 67 C-0.67 44.89 -0.34 22.78 0 0 Z " fill="#3D3B35" transform="translate(2122,286)"/>
<path d="M0 0 C14.19 0 28.38 0 43 0 C43 12.87 43 25.74 43 39 C28.81 39 14.62 39 0 39 C0 26.13 0 13.26 0 0 Z " fill="#3A3738" transform="translate(1153,821)"/>
<path d="M0 0 C3.3 0 6.6 0 10 0 C14.29 13.53 18.58 27.06 23 41 C27.56553269 27.88207791 27.56553269 27.88207791 32.12475586 14.76196289 C32.69622216 13.12378054 33.26790322 11.48567309 33.83984375 9.84765625 C34.13701294 8.98910034 34.43418213 8.13054443 34.74035645 7.24597168 C35.16653259 6.02798889 35.16653259 6.02798889 35.60131836 4.78540039 C35.97105019 3.72283775 35.97105019 3.72283775 36.34825134 2.6388092 C37 1 37 1 38 0 C40.33297433 -0.04092937 42.66705225 -0.04241723 45 0 C46.85529552 5.37382856 48.70660754 10.74900616 50.55419922 16.12548828 C51.18363178 17.95529457 51.81416201 19.78472364 52.44580078 21.61376953 C53.35215705 24.23893016 54.25459058 26.86541054 55.15625 29.4921875 C55.44060913 30.31306854 55.72496826 31.13394958 56.01794434 31.97970581 C58 37.77225659 58 37.77225659 58 40 C58.66 40 59.32 40 60 40 C60.22558594 38.8346875 60.45117188 37.669375 60.68359375 36.46875 C62.11683173 30.02359875 64.26004788 23.80647561 66.3684082 17.55859375 C67.06976359 15.47845706 67.76287335 13.39569745 68.45507812 11.3125 C71.86026923 1.13973077 71.86026923 1.13973077 73 0 C75.67058851 -0.14115161 78.32432238 -0.04247107 81 0 C78.42730664 10.71491184 74.56631345 21.00928754 70.875 31.375 C69.9045987 34.10205422 68.93543406 36.82951205 67.9704895 39.5585022 C67.3738508 41.24582721 66.77412885 42.93206616 66.17086792 44.61703491 C64.83616955 48.39098734 63.63024732 52.03033797 63 56 C60.36 56 57.72 56 55 56 C53.14273283 50.6451583 51.29148083 45.28828992 49.44580078 39.92944336 C48.81692236 38.10628035 48.18639672 36.28368467 47.55419922 34.46166992 C46.64638753 31.84440749 45.74449669 29.22516972 44.84375 26.60546875 C44.55939087 25.78974899 44.27503174 24.97402924 43.98205566 24.1335907 C43.72178589 23.37302872 43.46151611 22.61246674 43.19335938 21.82885742 C42.96241577 21.16045334 42.73147217 20.49204926 42.49353027 19.8033905 C42 18 42 18 42 15 C41.34 15 40.68 15 40 15 C39.84942139 15.61206299 39.69884277 16.22412598 39.54370117 16.85473633 C37.35170443 25.34201709 34.37297907 33.48730006 31.3125 41.6875 C30.79579464 43.08252335 30.27951574 44.47770474 29.76367188 45.87304688 C28.51401467 49.25052993 27.25863864 52.62585201 26 56 C23.36 56 20.72 56 18 56 C17.79536133 55.30084473 17.59072266 54.60168945 17.37988281 53.88134766 C15.28169369 46.88038258 12.98181434 39.97599179 10.546875 33.0859375 C10.08625671 31.78236298 10.08625671 31.78236298 9.61633301 30.45245361 C8.335195 26.8343192 7.05028427 23.21754663 5.76171875 19.60205078 C4.81106848 16.93142421 3.86613258 14.25882976 2.921875 11.5859375 C2.62819031 10.76725189 2.33450562 9.94856628 2.03192139 9.10507202 C0 3.33984905 0 3.33984905 0 0 Z " fill="#F7F7F7" transform="translate(821,813)"/>
<path d="M0 0 C1.48185036 -0.00945648 1.48185036 -0.00945648 2.99363708 -0.019104 C4.05929398 -0.01505554 5.12495087 -0.01100708 6.22290039 -0.00683594 C7.3189711 -0.00874939 8.41504181 -0.01066284 9.54432678 -0.01263428 C11.8635379 -0.01399595 14.18275663 -0.01030076 16.50195312 -0.00195312 C20.05299009 0.00873618 23.60351994 -0.00184398 27.15454102 -0.01464844 C29.40649526 -0.01332664 31.65844919 -0.01076383 33.91040039 -0.00683594 C34.97403305 -0.0108844 36.03766571 -0.01493286 37.13352966 -0.019104 C38.62010826 -0.00964752 38.62010826 -0.00964752 40.13671875 0 C41.4421891 0.00238678 41.4421891 0.00238678 42.77403259 0.00482178 C45.37455102 0.28478781 46.94133454 0.84257045 49.13305664 2.25878906 C51.20684818 5.36947637 51.39102226 6.1110021 51.43945312 9.65087891 C51.45544052 10.53544769 51.47142792 11.42001648 51.48789978 12.33139038 C51.49326248 13.28454132 51.49862518 14.23769226 51.50415039 15.21972656 C51.5176931 16.69380478 51.5176931 16.69380478 51.5315094 18.19766235 C51.54602046 20.27725168 51.55490076 22.35688676 51.55859375 24.43652344 C51.5704865 27.61504231 51.61966119 30.79161773 51.67016602 33.96972656 C51.67963065 35.99055042 51.68686549 38.0113862 51.69165039 40.03222656 C51.71118271 40.98132904 51.73071503 41.93043152 51.75083923 42.90829468 C51.71947368 47.50585531 51.64828197 49.58350362 48.78564453 53.33544922 C45.32797695 55.84253667 42.82479337 56.38411491 38.66503906 56.43579102 C37.76367722 56.44862625 36.86231537 56.46146149 35.93363953 56.47468567 C34.47580803 56.48576607 34.47580803 56.48576607 32.98852539 56.49707031 C31.98598221 56.50514206 30.98343903 56.51321381 29.95051575 56.52153015 C27.82803066 56.53536269 25.7055234 56.54608856 23.58300781 56.55395508 C20.34340103 56.57116769 17.10481489 56.61506181 13.86547852 56.65917969 C11.80233497 56.66930693 9.73918276 56.67782294 7.67602539 56.68457031 C6.71021042 56.7020784 5.74439545 56.71958649 4.74931335 56.73762512 C-1.09885793 56.71884067 -4.4095628 56.15022491 -8.86694336 52.25878906 C-10.00727276 49.97813027 -9.99923166 48.69764857 -10.01220703 46.16381836 C-10.01858688 45.31921555 -10.02496674 44.47461273 -10.03153992 43.60441589 C-10.03265274 42.68985123 -10.03376556 41.77528656 -10.03491211 40.83300781 C-10.03824051 39.89326614 -10.04156891 38.95352448 -10.04499817 37.98530579 C-10.05006727 35.99387095 -10.0524065 34.00242761 -10.05224609 32.01098633 C-10.05442701 28.96909484 -10.07256751 25.9275692 -10.09155273 22.88574219 C-10.09448779 20.95149864 -10.09647184 19.01725336 -10.09741211 17.08300781 C-10.10459763 16.17451584 -10.11178314 15.26602386 -10.1191864 14.33000183 C-10.08942619 6.06869355 -10.08942619 6.06869355 -7.86694336 2.25878906 C-4.62744506 0.09912353 -3.73847365 0.00684127 0 0 Z M-0.86694336 8.25878906 C-0.86694336 21.12878906 -0.86694336 33.99878906 -0.86694336 47.25878906 C13.32305664 47.25878906 27.51305664 47.25878906 42.13305664 47.25878906 C42.13305664 34.38878906 42.13305664 21.51878906 42.13305664 8.25878906 C27.94305664 8.25878906 13.75305664 8.25878906 -0.86694336 8.25878906 Z " fill="#F9F9F9" transform="translate(1153.866943359375,812.7412109375)"/>
<path d="M0 0 C3.3 0 6.6 0 10 0 C16.77229267 12.3180044 23.46936091 24.67593289 30.08889771 37.07666016 C30.86372476 38.52697381 31.6399938 39.976518 32.41769409 41.42529297 C33.51691729 43.47408909 34.61071562 45.52568956 35.703125 47.578125 C36.0369368 48.19802307 36.3707486 48.81792114 36.7146759 49.456604 C39 53.77143489 39 53.77143489 39 56 C35.7 56 32.4 56 29 56 C27.99491199 54.21118264 26.99607264 52.41885304 26 50.625 C25.443125 49.62726562 24.88625 48.62953125 24.3125 47.6015625 C23 45 23 45 23 43 C11.12 43.33 -0.76 43.66 -13 44 C-14.98 47.96 -16.96 51.92 -19 56 C-21.97 56 -24.94 56 -28 56 C-27.41081357 50.94697741 -25.07986712 47.01854679 -22.6875 42.625 C-21.78058485 40.93264794 -20.87436667 39.23992226 -19.96875 37.546875 C-19.48792969 36.65162109 -19.00710937 35.75636719 -18.51171875 34.83398438 C-15.35628018 28.91855625 -12.2862313 22.95806134 -9.19995117 17.00634766 C-6.22276354 11.28444672 -3.15736907 5.62460283 0 0 Z " fill="#F4F4F4" transform="translate(161,813)"/>
<path d="M0 0 C1.35568336 0.00333092 1.35568336 0.00333092 2.73875427 0.00672913 C3.75973709 0.00680466 4.78071991 0.00688019 5.8326416 0.00695801 C6.94304306 0.01211929 8.05344452 0.01728058 9.19749451 0.02259827 C10.89336952 0.02472069 10.89336952 0.02472069 12.62350464 0.02688599 C16.25105891 0.03250433 19.8785525 0.04505994 23.50608826 0.05775452 C25.95856133 0.06276715 28.41103536 0.06733047 30.86351013 0.07142639 C36.89022371 0.08247971 42.91690165 0.09923568 48.94358826 0.12025452 C48.94358826 3.09025452 48.94358826 6.06025452 48.94358826 9.12025452 C35.08358826 9.12025452 21.22358826 9.12025452 6.94358826 9.12025452 C6.94358826 13.74025452 6.94358826 18.36025452 6.94358826 23.12025452 C15.19358826 23.12025452 23.44358826 23.12025452 31.94358826 23.12025452 C31.94358826 26.09025452 31.94358826 29.06025452 31.94358826 32.12025452 C23.69358826 32.12025452 15.44358826 32.12025452 6.94358826 32.12025452 C6.94358826 37.40025452 6.94358826 42.68025452 6.94358826 48.12025452 C20.80358826 48.12025452 34.66358826 48.12025452 48.94358826 48.12025452 C48.94358826 51.09025452 48.94358826 54.06025452 48.94358826 57.12025452 C31.78358826 57.12025452 14.62358826 57.12025452 -3.05641174 57.12025452 C-3.07735778 49.84266991 -3.09739581 42.56519389 -3.10816193 35.28760529 C-3.11345143 31.8988822 -3.12052455 28.51018396 -3.1318512 25.12147522 C-3.14475441 21.23695674 -3.14964098 17.35244855 -3.15406799 13.46791077 C-3.15922928 12.24814041 -3.16439056 11.02837006 -3.16970825 9.77163696 C-3.16978378 8.65055038 -3.16985931 7.52946381 -3.16993713 6.37440491 C-3.17215775 5.38179153 -3.17437836 4.38917816 -3.17666626 3.3664856 C-3.0208624 0.45622914 -2.90645965 0.16996348 0 0 Z " fill="#EEEEEE" transform="translate(705.0564117431641,811.8797454833984)"/>
<path d="M0 0 C2.97 0 5.94 0 9 0 C9 18.81 9 37.62 9 57 C2 57 2 57 -0.41186523 55.36694336 C-1.12028564 54.61550049 -1.82870605 53.86405762 -2.55859375 53.08984375 C-3.35716797 52.26419922 -4.15574219 51.43855469 -4.97851562 50.58789062 C-5.78998047 49.71326172 -6.60144531 48.83863281 -7.4375 47.9375 C-9.05879147 46.23598501 -10.68246218 44.53673367 -12.30859375 42.83984375 C-13.09790283 42.01170166 -13.88721191 41.18355957 -14.70043945 40.33032227 C-17.37590949 37.61906189 -20.19098732 35.13960165 -23.08666992 32.66870117 C-26.34949287 29.8230466 -29.38732297 26.75746196 -32.4375 23.6875 C-33.06076172 23.06810547 -33.68402344 22.44871094 -34.32617188 21.81054688 C-34.91849609 21.21693359 -35.51082031 20.62332031 -36.12109375 20.01171875 C-36.6514624 19.48022217 -37.18183105 18.94872559 -37.72827148 18.40112305 C-39 17 -39 17 -40 15 C-40.33 28.86 -40.66 42.72 -41 57 C-43.97 57 -46.94 57 -50 57 C-50 38.52 -50 20.04 -50 1 C-42 1 -42 1 -38.875 3.37890625 C-37.89534247 4.42045074 -36.93710602 5.48251106 -36 6.5625 C-35.04474767 7.60829136 -34.0863592 8.65122594 -33.125 9.69140625 C-32.62685791 10.23466553 -32.12871582 10.7779248 -31.61547852 11.33764648 C-29.91386153 13.08863788 -28.13149073 14.66964746 -26.27734375 16.2578125 C-21.12098977 20.68938024 -16.35735165 25.49663366 -11.5625 30.3125 C-10.65306641 31.21806641 -9.74363281 32.12363281 -8.80664062 33.05664062 C-7.94361328 33.92095703 -7.08058594 34.78527344 -6.19140625 35.67578125 C-5.40967041 36.45864502 -4.62793457 37.24150879 -3.82250977 38.0480957 C-2 40 -2 40 -1 42 C-0.67 28.14 -0.34 14.28 0 0 Z " fill="#F5F5F5" transform="translate(278,812)"/>
<path d="M0 0 C0.86462357 -0.0127597 1.72924713 -0.02551941 2.62007141 -0.03866577 C4.02472908 -0.04200424 4.02472908 -0.04200424 5.45776367 -0.04541016 C6.41970139 -0.05206696 7.3816391 -0.05872375 8.37272644 -0.06558228 C10.41122522 -0.07572082 12.44975728 -0.08039893 14.48828125 -0.08007812 C17.60301784 -0.08444084 20.71632585 -0.12071891 23.83081055 -0.15869141 C25.81062341 -0.16456144 27.790443 -0.16852958 29.77026367 -0.17041016 C30.70062943 -0.18478119 31.63099518 -0.19915222 32.58955383 -0.21395874 C36.85683421 -0.18391838 39.18318428 -0.10080005 42.87841797 2.19433594 C46.07498799 5.65752208 45.92499369 7.7849685 45.87573242 12.41552734 C45.86670898 13.51123047 45.85768555 14.60693359 45.84838867 15.73583984 C45.83678711 16.57888672 45.82518555 17.42193359 45.81323242 18.29052734 C42.51323242 18.95052734 39.21323242 19.61052734 35.81323242 20.29052734 C35.81323242 16.33052734 35.81323242 12.37052734 35.81323242 8.29052734 C24.26323242 8.29052734 12.71323242 8.29052734 0.81323242 8.29052734 C0.81323242 21.16052734 0.81323242 34.03052734 0.81323242 47.29052734 C12.36323242 47.29052734 23.91323242 47.29052734 35.81323242 47.29052734 C35.81323242 43.00052734 35.81323242 38.71052734 35.81323242 34.29052734 C44.68823242 35.16552734 44.68823242 35.16552734 45.81323242 36.29052734 C46.84198673 49.01146998 46.84198673 49.01146998 42.81323242 54.29052734 C38.3300813 56.74829277 33.94546944 56.59689661 28.96948242 56.59130859 C27.69941345 56.59773628 27.69941345 56.59773628 26.40368652 56.60429382 C24.61849866 56.61002138 22.83328746 56.61054901 21.0480957 56.60620117 C18.3222671 56.60303783 15.59752102 56.62653104 12.87182617 56.65185547 C11.13354629 56.65412835 9.39526349 56.65483201 7.65698242 56.65380859 C6.84539673 56.66301834 6.03381104 56.67222809 5.19763184 56.68171692 C0.60124455 56.64425756 -2.522819 56.36239457 -6.18676758 53.29052734 C-9.90495574 48.90710748 -9.62406066 44.4820513 -9.58520508 39.00927734 C-9.58807526 38.11817261 -9.59094543 37.22706787 -9.59390259 36.30895996 C-9.5959392 34.42959964 -9.59043756 32.55021792 -9.57788086 30.67089844 C-9.56182132 27.80013469 -9.57774307 24.93077874 -9.59692383 22.06005859 C-9.59494132 20.23062841 -9.5910975 18.40119911 -9.58520508 16.57177734 C-9.59127777 15.71644409 -9.59735046 14.86111084 -9.60360718 13.9798584 C-9.52394673 7.20422387 -7.94902514 0.07951388 0 0 Z " fill="#F4F4F4" transform="translate(62.186767578125,812.70947265625)"/>
<path d="M0 0 C2.97 0 5.94 0 9 0 C9 7.26 9 14.52 9 22 C22.53 22 36.06 22 50 22 C50 14.74 50 7.48 50 0 C52.97 0 55.94 0 59 0 C59 18.48 59 36.96 59 56 C55.7 56 52.4 56 49 56 C49 47.75 49 39.5 49 31 C35.8 31 22.6 31 9 31 C9 38.92 9 46.84 9 55 C6.03 55 3.06 55 0 55 C0 36.85 0 18.7 0 0 Z " fill="#F8F8F8" transform="translate(1050,813)"/>
<path d="M0 0 C3.3 0 6.6 0 10 0 C10.07419174 7.02919203 10.12862259 14.05815579 10.16479492 21.08764648 C10.17987543 23.4786374 10.20034277 25.86960068 10.22631836 28.26049805 C10.26273306 31.69847435 10.27973399 35.13608469 10.29296875 38.57421875 C10.30845261 39.64210129 10.32393646 40.70998383 10.33988953 41.81022644 C10.34207025 51.44055193 10.34207025 51.44055193 7 55 C2.61512389 57.69178157 -2.29255249 57.306097 -7.28125 57.30078125 C-8.17235474 57.30506638 -9.06345947 57.3093515 -9.98156738 57.31376648 C-11.8609126 57.31949569 -13.74027998 57.32002045 -15.61962891 57.31567383 C-18.49029387 57.3125107 -21.35993083 57.3360013 -24.23046875 57.36132812 C-26.05989454 57.36360099 -27.88932309 57.36430467 -29.71875 57.36328125 C-30.57408325 57.372491 -31.4294165 57.38170074 -32.31066895 57.39118958 C-36.99432368 57.35491922 -40.2681459 57.15220484 -44 54 C-45.89794009 50.93490295 -46.24548912 48.62488879 -46.22705078 45.04785156 C-46.22689972 44.06713684 -46.22674866 43.08642212 -46.22659302 42.07598877 C-46.21627045 41.02481873 -46.20594788 39.97364868 -46.1953125 38.890625 C-46.1924826 37.80867859 -46.18965271 36.72673218 -46.18673706 35.61199951 C-46.17554609 32.15788696 -46.1504432 28.70403412 -46.125 25.25 C-46.11496881 22.90755583 -46.1058432 20.56510759 -46.09765625 18.22265625 C-46.07561025 12.48167083 -46.04108755 6.74087944 -46 1 C-43.03 1 -40.06 1 -37 1 C-37 16.51 -37 32.02 -37 48 C-24.79 48 -12.58 48 0 48 C0 32.16 0 16.32 0 0 Z " fill="#F6F5F6" transform="translate(1286,812)"/>
<path d="M0 0 C6.93 2.97 6.93 2.97 14 6 C14 6.66 14 7.32 14 8 C13.23300781 8.22171875 12.46601563 8.4434375 11.67578125 8.671875 C7.36010657 10.8139617 6.60326897 14.15531715 4.953125 18.5 C2.75003011 26.59005335 2.57207564 35.00002426 6.734375 42.44921875 C9.08772247 45.33279574 11.00318121 46.86965008 14.7588501 47.36076355 C15.81586121 47.35410172 16.87287231 47.34743988 17.96191406 47.34057617 C19.76332855 47.34023628 19.76332855 47.34023628 21.60113525 47.33988953 C22.89291687 47.32440567 24.18469849 47.30892181 25.515625 47.29296875 C26.85511805 47.28737052 28.19461726 47.28310149 29.53411865 47.28010559 C33.05237921 47.26867454 36.57026571 47.23922294 40.08837891 47.20599365 C43.68126364 47.17525489 47.27420906 47.16159216 50.8671875 47.14648438 C57.91161096 47.11435113 64.955781 47.06317621 72 47 C72.495 46.01 72.495 46.01 73 45 C73.66 45 74.32 45 75 45 C75 50.28 75 55.56 75 61 C74.34 61 73.68 61 73 61 C72.34 60.01 71.68 59.02 71 58 C68.39172427 57.55640289 68.39172427 57.55640289 65.30029297 57.64697266 C63.50735306 57.64148911 63.50735306 57.64148911 61.67819214 57.63589478 C60.37931061 57.64519012 59.08042908 57.65448547 57.7421875 57.6640625 C56.39656826 57.65990944 55.05095389 57.65372573 53.70535278 57.64559937 C47.98872515 57.61464726 42.27232324 57.61940359 36.55566406 57.63964844 C33.0582444 57.65062629 29.56156106 57.63724188 26.06424332 57.60975266 C24.09464493 57.60172535 22.12499591 57.62157394 20.15548706 57.64199829 C12.85579571 57.58211959 7.54918088 57.02275559 2 52 C-4.99192935 43.68527321 -6.05231291 33.56164084 -5.28955078 23.06201172 C-4.6450932 18.47256088 -2.84904453 14.31407994 -0.99609375 10.0859375 C0.13346079 6.58653323 -0.21626032 4.53980437 -1 1 C-0.67 0.67 -0.34 0.34 0 0 Z " fill="#3C3A35" transform="translate(2126,182)"/>
<path d="M0 0 C3.3 0 6.6 0 10 0 C11.41727588 2.68718016 12.83390127 5.37469948 14.25 8.0625 C14.68948975 8.8963623 15.12897949 9.73022461 15.58178711 10.58935547 C18.16809399 15.50193908 20.74170993 20.42082501 23.30078125 25.34765625 C24.11530762 26.91471313 24.11530762 26.91471313 24.94628906 28.51342773 C26.01623416 30.57331449 27.08461666 32.63401371 28.15136719 34.69555664 C28.63895508 35.63391357 29.12654297 36.57227051 29.62890625 37.5390625 C30.06275635 38.37646973 30.49660645 39.21387695 30.94360352 40.07666016 C31.85486289 41.94798373 31.85486289 41.94798373 33 43 C33.38744385 42.19481934 33.7748877 41.38963867 34.17407227 40.56005859 C35.64751785 37.49926944 37.12192199 34.43894558 38.59692383 31.37890625 C39.22847802 30.06821173 39.85967747 28.75734621 40.49047852 27.44628906 C44.91271606 18.25594064 49.41345684 9.10959254 54 0 C56.97 0 59.94 0 63 0 C61.35282743 5.66739035 58.73789118 10.70592282 56.0625 15.9375 C51.44179068 25.06061735 46.97507575 34.24617725 42.61743164 43.49780273 C41.78045573 45.26555223 40.93356497 47.02866103 40.07421875 48.78564453 C39.21595295 50.55484244 38.41117304 52.34995273 37.625 54.15234375 C36 56 36 56 32.3125 56.3125 C31.219375 56.209375 30.12625 56.10625 29 56 C21.68587139 42.84659055 14.64486124 29.56422306 7.75 16.1875 C7.36466095 15.44146515 6.9793219 14.6954303 6.58230591 13.92678833 C5.48465911 11.8001251 4.39012982 9.6718925 3.296875 7.54296875 C2.9630632 6.89603058 2.6292514 6.24909241 2.2853241 5.58255005 C0 1.1156919 0 1.1156919 0 0 Z " fill="#F7F7F7" transform="translate(612,813)"/>
<path d="M0 0 C18.81 0 37.62 0 57 0 C57 2.64 57 5.28 57 8 C49.08 8 41.16 8 33 8 C33 23.84 33 39.68 33 56 C29.7 56 26.4 56 23 56 C23 40.16 23 24.32 23 8 C15.41 8 7.82 8 0 8 C0 5.36 0 2.72 0 0 Z " fill="#F6F6F6" transform="translate(966,813)"/>
<path d="M0 0 C18.81 0 37.62 0 57 0 C57 2.64 57 5.28 57 8 C49.08 8 41.16 8 33 8 C33 23.84 33 39.68 33 56 C29.7 56 26.4 56 23 56 C23 40.16 23 24.32 23 8 C15.41 8 7.82 8 0 8 C0 5.36 0 2.72 0 0 Z " fill="#F7F6F7" transform="translate(371,813)"/>
<path d="M0 0 C3.3 0 6.6 0 10 0 C10 15.84 10 31.68 10 48 C23.2 48 36.4 48 50 48 C50 50.97 50 53.94 50 57 C33.5 57 17 57 0 57 C0 38.19 0 19.38 0 0 Z " fill="#F1F1F1" transform="translate(499,812)"/>
<path d="M0 0 C18.81 0 37.62 0 57 0 C57 2.64 57 5.28 57 8 C49.08 8 41.16 8 33 8 C33 23.51 33 39.02 33 55 C30.03 55 27.06 55 24 55 C24 39.49 24 23.98 24 8 C16.08 8 8.16 8 0 8 C0 5.36 0 2.72 0 0 Z " fill="#FCFCFC" transform="translate(1323,813)"/>
<path d="M0 0 C12.74920175 5.50705165 25.46555251 11.01990025 38 17 C35.24367625 20.40005117 31.45467851 21.83440229 27.55859375 23.57421875 C26.83511246 23.90291458 26.11163116 24.23161041 25.3662262 24.57026672 C23.84041925 25.26174623 22.31311236 25.94992428 20.78442383 26.63500977 C18.43913881 27.68676507 16.09919131 28.74973813 13.75976562 29.81445312 C12.2763431 30.48504221 10.7926289 31.15498653 9.30859375 31.82421875 C8.60649277 32.14291428 7.90439178 32.4616098 7.18101501 32.78996277 C2.2317217 35 2.2317217 35 0 35 C0 23.45 0 11.9 0 0 Z " fill="#C9D839" transform="translate(2152,416)"/>
<path d="M0 0 C3.3 0 6.6 0 10 0 C10 18.48 10 36.96 10 56 C6.7 56 3.4 56 0 56 C0 37.52 0 19.04 0 0 Z " fill="#F3F3F3" transform="translate(929,813)"/>
<path d="M0 0 C2.97 0 5.94 0 9 0 C9 18.15 9 36.3 9 55 C6.03 55 3.06 55 0 55 C0 36.85 0 18.7 0 0 Z " fill="#FEFEFE" transform="translate(576,813)"/>
<path d="M0 0 C0.66 0 1.32 0 2 0 C4.00320878 3.97755927 6.00202889 7.95730755 8 11.9375 C8.57234375 13.07380859 9.1446875 14.21011719 9.734375 15.38085938 C10.27578125 16.46044922 10.8171875 17.54003906 11.375 18.65234375 C12.12910156 20.15269165 12.12910156 20.15269165 12.8984375 21.68334961 C14 24 14 24 14 25 C5.42 25 -3.16 25 -12 25 C-10.66382681 20.99148043 -9.54961084 17.8749126 -7.6171875 14.2578125 C-7.17246094 13.41992188 -6.72773438 12.58203125 -6.26953125 11.71875 C-5.80933594 10.8628125 -5.34914062 10.006875 -4.875 9.125 C-4.40707031 8.24585938 -3.93914062 7.36671875 -3.45703125 6.4609375 C-2.3087907 4.30505729 -1.15636097 2.15153223 0 0 Z " fill="#3B393A" transform="translate(165,822)"/>
<path d="M0 0 C9.27734375 -0.09765625 9.27734375 -0.09765625 12 0 C14.35235661 2.35235661 13.56297533 7.11625039 13.56640625 10.2109375 C12.54876814 17.01858555 8.78300715 22.36771034 5 28 C3.02 28 1.04 28 -1 28 C0.98 23.38 2.96 18.76 5 14 C3.35 13.67 1.7 13.34 0 13 C0 8.71 0 4.42 0 0 Z " fill="#F2F2F2" transform="translate(327,800)"/>
</svg>
